<svg xmlns="http://www.w3.org/2000/svg" class="svg-inline--fa fa-facebook-square fa-w-14 fa-2x" role="img" aria-hidden="true" viewBox="0 0 448 512" xmlns="http://www.w3.org/2000/svg" data-prefix="fab" data-icon="facebook-square"><path class="" fill="currentColor" d="M 448 80 v 352 c 0 26.5 -21.5 48 -48 48 h -85.3 V 302.8 h 60.6 l 8.7 -67.6 h -69.3 V 192 c 0 -19.6 5.4 -32.9 33.5 -32.9 H 384 V 98.7 c -6.2 -0.8 -27.4 -2.7 -52.2 -2.7 c -51.6 0 -87 31.5 -87 89.4 v 49.9 H 184 v 67.6 h 60.9 V 480 H 48 c -26.5 0 -48 -21.5 -48 -48 V 80 c 0 -26.5 21.5 -48 48 -48 h 352 c 26.5 0 48 21.5 48 48 Z" /></svg>